<svg xmlns="http://www.w3.org/2000/svg" enable-background="new 0 0 512 512" viewBox="0 0 512 512"><g display="none"><polygon fill="#E5E3E3" stroke="#000" stroke-linecap="round" stroke-linejoin="round" stroke-width="16" points="369.7 305 318 322.8 286.7 367.6 234.5 351.6 182.9 369.4 150 325.8 97.8 309.8 96.9 255.2 64 211.6 95.3 166.9 94.3 112.3 146 94.6 177.3 49.8 229.5 65.8 281.1 48 314 91.6 366.2 107.6 367.1 162.1 400 205.7 368.7 250.5"/><circle cx="232" cy="208.7" r="116.4" fill="#E5E3E3" stroke="#000" stroke-linecap="round" stroke-linejoin="round" stroke-width="16"/><path fill="#E5E3E3" stroke="#000" stroke-linecap="round" stroke-linejoin="round" stroke-width="16" d="
		M408,368.3V56c0-17.7-14.3-32-32-32h0c-17.7,0-32,14.3-32,32v312.3c-19.5,11.3-32.5,32.6-32,56.8c0.7,34.2,28.8,62.1,63,62.6
		c35.8,0.5,64.9-28.3,64.9-64C440,400,427.1,379.4,408,368.3z"/><circle cx="376" cy="423.7" r="24" fill="#E5E3E3" stroke="#000" stroke-linecap="round" stroke-linejoin="round" stroke-width="16"/><line x1="376" x2="376" y1="72" y2="399.7" fill="#E5E3E3" stroke="#000" stroke-linecap="round" stroke-linejoin="round" stroke-width="16"/><line x1="448" x2="408" y1="80" y2="80" fill="#E5E3E3" stroke="#000" stroke-linecap="round" stroke-linejoin="round" stroke-width="16"/><line x1="432" x2="408" y1="112" y2="112" fill="#E5E3E3" stroke="#000" stroke-linecap="round" stroke-linejoin="round" stroke-width="16"/><line x1="432" x2="408" y1="144" y2="144" fill="#E5E3E3" stroke="#000" stroke-linecap="round" stroke-linejoin="round" stroke-width="16"/><line x1="448" x2="408" y1="176" y2="176" fill="#E5E3E3" stroke="#000" stroke-linecap="round" stroke-linejoin="round" stroke-width="16"/><line x1="432" x2="408" y1="208" y2="208" fill="#E5E3E3" stroke="#000" stroke-linecap="round" stroke-linejoin="round" stroke-width="16"/><line x1="432" x2="408" y1="240" y2="240" fill="#E5E3E3" stroke="#000" stroke-linecap="round" stroke-linejoin="round" stroke-width="16"/></g><g display="none"><path d="M384,392.7V72c0-4.4-3.6-8-8-8s-8,3.6-8,8v320.7c-13.8,3.6-24,16.1-24,31c0,17.6,14.4,32,32,32s32-14.4,32-32
			C408,408.8,397.8,396.3,384,392.7z M376,439.7c-8.8,0-16-7.2-16-16s7.2-16,16-16s16,7.2,16,16S384.8,439.7,376,439.7z"/><path d="M448,168h-32v-16h16c4.4,0,8-3.6,8-8s-3.6-8-8-8h-16v-16h16c4.4,0,8-3.6,8-8s-3.6-8-8-8h-16V88h32c4.4,0,8-3.6,8-8
			s-3.6-8-8-8h-32V56c0-22.1-17.9-40-40-40s-40,17.9-40,40v34l-17.2-5.3l-31.3-41.5c-2.1-2.8-5.7-3.9-9-2.7l-49.2,16.9l-49.7-15.2
			c-3.3-1-6.9,0.2-8.9,3.1l-29.8,42.6l-49.2,16.9c-3.3,1.1-5.5,4.2-5.4,7.7l0.9,52l-29.8,42.6c-2,2.8-1.9,6.6,0.2,9.4L88.9,258
			l0.9,52c0.1,3.5,2.3,6.5,5.7,7.5l49.7,15.2l31.3,41.5c1.5,2,3.9,3.2,6.4,3.2c0.9,0,1.7-0.1,2.6-0.4l49.2-16.9l49.7,15.2
			c3.3,1,6.9-0.2,8.9-3.1l29.8-42.6l12.9-4.4v38.8c-20.4,13.6-32.5,36.8-32,61.5c0.4,18.6,8,36.2,21.3,49.4
			c13.4,13.2,31,20.7,49.6,21c0.4,0,0.7,0,1.1,0c19,0,37-7.3,50.5-20.7c13.8-13.6,21.5-31.9,21.5-51.3c0-24-12.2-46.6-32-59.9V248
			h16c4.4,0,8-3.6,8-8s-3.6-8-8-8h-16v-16h16c4.4,0,8-3.6,8-8s-3.6-8-8-8h-16v-16h32c4.4,0,8-3.6,8-8S452.4,168,448,168z M336,239.4
			c-13.5,45.8-56.1,77.7-104,77.7c-59.8,0-108.4-48.6-108.4-108.4S172.2,100.3,232,100.3c47.9,0,90.5,31.9,104,77.7V239.4z
			 M315.4,315.3c-1.6,0.6-3,1.6-3.9,3l-28,40l-46.7-14.3c-1.6-0.5-3.3-0.5-4.9,0.1l-46.1,15.9l-29.4-39c-1-1.3-2.4-2.3-4.1-2.8
			l-46.7-14.3l-0.9-48.8c0-1.7-0.6-3.3-1.6-4.7l-29.4-38.9l28-40c1-1.4,1.5-3,1.4-4.7l-0.9-48.8l46.1-15.9c1.6-0.6,3-1.6,3.9-3
			l28-40l46.7,14.3c1.6,0.5,3.3,0.5,4.9-0.1l46.1-15.9l29.4,39c1,1.3,2.4,2.3,4.1,2.8l24.4,7.4v33.8c-7.7-11.7-17.2-22.1-28.4-30.6
			c-21.9-16.8-48-25.6-75.6-25.6c-68.6,0-124.4,55.8-124.4,124.4S163.4,333.1,232,333.1c27.6,0,53.8-8.9,75.6-25.6
			c11.1-8.5,20.7-18.9,28.4-30.6v31.3L315.4,315.3z M432,423.7c0,15.1-5.9,29.3-16.7,39.9c-10.8,10.6-25,16.3-40.1,16.1
			c-29.8-0.4-54.5-25-55.2-54.7c-0.4-20.4,10.3-39.5,28-49.7c2.5-1.4,4-4.1,4-6.9V100.8c0,0,0-0.1,0-0.1V56c0-13.2,10.8-24,24-24
			c13.2,0,24,10.8,24,24v312.3c0,2.9,1.5,5.5,4,6.9C421.3,385.2,432,403.8,432,423.7z"/></g><g display="none"><path d="M232,100.3c-59.8,0-108.4,48.6-108.4,108.4S172.2,317.1,232,317.1c47.9,0,90.5-31.9,104-77.7V178
			C322.5,132.2,279.9,100.3,232,100.3z"/><path d="M336,276.9c-7.7,11.7-17.2,22.1-28.4,30.6c-21.9,16.8-48,25.6-75.6,25.6c-68.6,0-124.4-55.8-124.4-124.4
			S163.4,84.3,232,84.3c27.6,0,53.8,8.9,75.6,25.6c11.1,8.5,20.7,18.9,28.4,30.6v-33.8l-24.4-7.4c-1.6-0.5-3-1.5-4.1-2.8l-29.4-39
			l-46.1,15.9c-1.6,0.5-3.3,0.6-4.9,0.1l-46.7-14.3l-28,40c-1,1.4-2.4,2.4-3.9,3L102.5,118l0.9,48.8c0,1.7-0.5,3.3-1.4,4.7l-28,40
			l29.4,38.9c1,1.3,1.6,3,1.6,4.7l0.9,48.8l46.7,14.3c1.6,0.5,3,1.5,4.1,2.8l29.4,39l46.1-15.9c1.6-0.6,3.3-0.6,4.9-0.1l46.7,14.3
			l28-40c1-1.4,2.4-2.4,3.9-3l20.6-7.1V276.9z"/><path d="M440,168h-40v-16h24c4.4,0,8-3.6,8-8s-3.6-8-8-8h-24v-16h24c4.4,0,8-3.6,8-8s-3.6-8-8-8h-24V88h40c4.4,0,8-3.6,8-8
			s-3.6-8-8-8h-40V56c0-13.2-10.8-24-24-24c-13.2,0-24,10.8-24,24v44.7c0,0,0,0.1,0,0.1v267.5c0,2.9-1.5,5.5-4,6.9
			c-17.7,10.3-28.4,29.3-28,49.7c0.7,29.8,25.4,54.3,55.2,54.7c15.1,0.2,29.4-5.5,40.1-16.1c10.8-10.6,16.7-24.8,16.7-39.9
			c0-19.9-10.7-38.5-28-48.5c-2.5-1.4-4-4.1-4-6.9V248h24c4.4,0,8-3.6,8-8s-3.6-8-8-8h-24v-16h24c4.4,0,8-3.6,8-8s-3.6-8-8-8h-24
			v-16h40c4.4,0,8-3.6,8-8S444.4,168,440,168z M408,424c0,17.7-14.3,32-32,32s-32-14.3-32-32c0-14.9,10.2-27.4,24-31V160h16v233
			C397.8,396.6,408,409.1,408,424z"/></g><path fill="#CD604E" d="M448,88h-40c-4.4,0-8-3.6-8-8s3.6-8,8-8h40c4.4,0,8,3.6,8,8S452.4,88,448,88z M440,112c0-4.4-3.6-8-8-8h-24
		c-4.4,0-8,3.6-8,8s3.6,8,8,8h24C436.4,120,440,116.4,440,112z M440,144c0-4.4-3.6-8-8-8h-24c-4.4,0-8,3.6-8,8s3.6,8,8,8h24
		C436.4,152,440,148.4,440,144z M456,176c0-4.4-3.6-8-8-8h-40c-4.4,0-8,3.6-8,8s3.6,8,8,8h40C452.4,184,456,180.4,456,176z M440,208
		c0-4.4-3.6-8-8-8h-24c-4.4,0-8,3.6-8,8s3.6,8,8,8h24C436.4,216,440,212.4,440,208z M440,240c0-4.4-3.6-8-8-8h-24c-4.4,0-8,3.6-8,8
		s3.6,8,8,8h24C436.4,248,440,244.4,440,240z"/><polygon fill="#FF926B" points="369.7 305 318 322.8 286.7 367.6 234.5 351.6 182.9 369.4 150 325.8 97.8 309.8 96.9 255.2 64 211.6 95.3 166.9 94.3 112.3 146 94.6 177.3 49.8 229.5 65.8 281.1 48 314 91.6 366.2 107.6 367.1 162.1 400 205.7 368.7 250.5"/><circle cx="232" cy="208.7" r="116.4" fill="#F7C37B"/><path fill="#68BECD" d="M408,368.3V56c0-17.7-14.3-32-32-32h0c-17.7,0-32,14.3-32,32v312.3c-19.5,11.3-32.5,32.6-32,56.8
		c0.7,34.2,28.8,62.1,63,62.6c35.8,0.5,64.9-28.3,64.9-64C440,400,427.1,379.4,408,368.3z"/><circle cx="376" cy="423.7" r="32" fill="#CD604E"/><path fill="#CD604E" d="M376,407.7c-4.4,0-8-3.6-8-8V72c0-4.4,3.6-8,8-8s8,3.6,8,8v327.7C384,404.1,380.4,407.7,376,407.7z"/><g display="none"><path fill="#CD604E" d="M448,88h-40c-4.4,0-8-3.6-8-8s3.6-8,8-8h40c4.4,0,8,3.6,8,8S452.4,88,448,88z M440,112
		c0-4.4-3.6-8-8-8h-24c-4.4,0-8,3.6-8,8s3.6,8,8,8h24C436.4,120,440,116.4,440,112z M440,144c0-4.4-3.6-8-8-8h-24c-4.4,0-8,3.6-8,8
		s3.6,8,8,8h24C436.4,152,440,148.4,440,144z M456,176c0-4.4-3.6-8-8-8h-40c-4.4,0-8,3.6-8,8s3.6,8,8,8h40
		C452.4,184,456,180.4,456,176z M440,208c0-4.4-3.6-8-8-8h-24c-4.4,0-8,3.6-8,8s3.6,8,8,8h24C436.4,216,440,212.4,440,208z M440,240
		c0-4.4-3.6-8-8-8h-24c-4.4,0-8,3.6-8,8s3.6,8,8,8h24C436.4,248,440,244.4,440,240z"/><polygon fill="#FF926B" points="369.7 305 318 322.8 286.7 367.6 234.5 351.6 182.9 369.4 150 325.8 97.8 309.8 96.9 255.2 64 211.6 95.3 166.9 94.3 112.3 146 94.6 177.3 49.8 229.5 65.8 281.1 48 314 91.6 366.2 107.6 367.1 162.1 400 205.7 368.7 250.5"/><circle cx="232" cy="208.7" r="116.4" fill="#F7C37B"/><path fill="#68BECD" d="M408,368.3V56c0-17.7-14.3-32-32-32h0c-17.7,0-32,14.3-32,32v312.3
		c-19.5,11.3-32.5,32.6-32,56.8c0.7,34.2,28.8,62.1,63,62.6c35.8,0.5,64.9-28.3,64.9-64C440,400,427.1,379.4,408,368.3z"/><circle cx="376" cy="423.7" r="32" fill="#CD604E"/><path fill="#CD604E" d="M376,407.7c-4.4,0-8-3.6-8-8V72c0-4.4,3.6-8,8-8s8,3.6,8,8v327.7C384,404.1,380.4,407.7,376,407.7z"/><path d="M384,392.7V72c0-4.4-3.6-8-8-8s-8,3.6-8,8v320.7c-13.8,3.6-24,16.1-24,31c0,17.6,14.4,32,32,32s32-14.4,32-32
			C408,408.8,397.8,396.3,384,392.7z M376,439.7c-8.8,0-16-7.2-16-16s7.2-16,16-16s16,7.2,16,16S384.8,439.7,376,439.7z"/><path d="M448,168h-32v-16h16c4.4,0,8-3.6,8-8s-3.6-8-8-8h-16v-16h16c4.4,0,8-3.6,8-8s-3.6-8-8-8h-16V88h32c4.4,0,8-3.6,8-8
			s-3.6-8-8-8h-32V56c0-22.1-17.9-40-40-40s-40,17.9-40,40v34l-17.2-5.3l-31.3-41.5c-2.1-2.8-5.7-3.9-9-2.7l-49.2,16.9l-49.7-15.2
			c-3.3-1-6.9,0.2-8.9,3.1l-29.8,42.6l-49.2,16.9c-3.3,1.1-5.5,4.2-5.4,7.7l0.9,52l-29.8,42.6c-2,2.8-1.9,6.6,0.2,9.4L88.9,258
			l0.9,52c0.1,3.5,2.3,6.5,5.7,7.5l49.7,15.2l31.3,41.5c1.5,2,3.9,3.2,6.4,3.2c0.9,0,1.7-0.1,2.6-0.4l49.2-16.9l49.7,15.2
			c3.3,1,6.9-0.2,8.9-3.1l29.8-42.6l12.9-4.4v38.8c-20.4,13.6-32.5,36.8-32,61.5c0.4,18.6,8,36.2,21.3,49.4
			c13.4,13.2,31,20.7,49.6,21c0.4,0,0.7,0,1.1,0c19,0,37-7.3,50.5-20.7c13.8-13.6,21.5-31.9,21.5-51.3c0-24-12.2-46.6-32-59.9V248
			h16c4.4,0,8-3.6,8-8s-3.6-8-8-8h-16v-16h16c4.4,0,8-3.6,8-8s-3.6-8-8-8h-16v-16h32c4.4,0,8-3.6,8-8S452.4,168,448,168z M336,239.4
			c-13.5,45.8-56.1,77.7-104,77.7c-59.8,0-108.4-48.6-108.4-108.4S172.2,100.3,232,100.3c47.9,0,90.5,31.9,104,77.7V239.4z
			 M315.4,315.3c-1.6,0.6-3,1.6-3.9,3l-28,40l-46.7-14.3c-1.6-0.5-3.3-0.5-4.9,0.1l-46.1,15.9l-29.4-39c-1-1.3-2.4-2.3-4.1-2.8
			l-46.7-14.3l-0.9-48.8c0-1.7-0.6-3.3-1.6-4.7l-29.4-38.9l28-40c1-1.4,1.5-3,1.4-4.7l-0.9-48.8l46.1-15.9c1.6-0.6,3-1.6,3.9-3
			l28-40l46.7,14.3c1.6,0.5,3.3,0.5,4.9-0.1l46.1-15.9l29.4,39c1,1.3,2.4,2.3,4.1,2.8l24.4,7.4v33.8c-7.7-11.7-17.2-22.1-28.4-30.6
			c-21.9-16.8-48-25.6-75.6-25.6c-68.6,0-124.4,55.8-124.4,124.4S163.4,333.1,232,333.1c27.6,0,53.8-8.9,75.6-25.6
			c11.1-8.5,20.7-18.9,28.4-30.6v31.3L315.4,315.3z M432,423.7c0,15.1-5.9,29.3-16.7,39.9c-10.8,10.6-25,16.3-40.1,16.1
			c-29.8-0.4-54.5-25-55.2-54.7c-0.4-20.4,10.3-39.5,28-49.7c2.5-1.4,4-4.1,4-6.9V100.8c0,0,0-0.1,0-0.1V56c0-13.2,10.8-24,24-24
			c13.2,0,24,10.8,24,24v312.3c0,2.9,1.5,5.5,4,6.9C421.3,385.2,432,403.8,432,423.7z"/></g></svg>